<?xml version="1.0" encoding="UTF-8"?>
<svg width="200px" height="180px" viewBox="0 0 200 180" version="1.1" xmlns="http://www.w3.org/2000/svg" xmlns:xlink="http://www.w3.org/1999/xlink">
    <title>Shape</title>
    <g id="Page-1" stroke="none" stroke-width="1" fill="none" fill-rule="evenodd">
        <g id="logo-white" fill="#7B00FF" fill-rule="nonzero">
            <path d="M87.0957769,47.4865517 L125.907376,116.725407 L114.184134,115.983429 L86.9968466,67.4890249 L28.6897916,169.152291 L178.779447,169.047177 L184.529772,179.311198 L178.779447,179.131886 L11.5253818,179.249366 L87.0957769,47.4865517 Z M113.553453,2.71440054 L116.274037,7.92679157 L200,157.051877 L51.431398,155.52464 L90.2368144,86.2919681 L95.473938,97.1186545 L68.2928337,145.613059 L182.928337,146.794039 L107.803129,12.9660545 L113.553453,2.70203425 L113.553453,2.71440054 Z M86.5578433,0 L159.55605,133.283868 L81.9390342,133.283868 L88.4313362,123.199159 L142.793545,123.199159 L86.4650961,20.3549125 L11.5068324,154.281828 L0,154.281828 L3.02355778,149.242565 L86.5578433,0 Z" id="Shape"></path>
        </g>
    </g>
</svg>