<svg xmlns="http://www.w3.org/2000/svg" width="33" height="29" viewBox="0 0 33 29">
    <g fill="none" fill-rule="evenodd">
        <g fill="#000" fill-rule="nonzero">
            <g>
                <g>
                    <g>
                        <path d="M14.086 7.68l6.277 11.198-1.896-.12-4.397-7.843-9.43 16.442 24.274-.017.93 1.66-.93-.029-27.05.019L14.086 7.68zM18.365.439l.44.843L32.346 25.4l-24.028-.247 6.276-11.197.847 1.751-4.396 7.843 18.54.191-12.15-21.644.93-1.66zM13.999 0l11.806 21.556H13.252l1.05-1.631h8.792l-9.11-16.633-12.123 21.66H0l.489-.815L13.999 0z" transform="translate(-60 -38) translate(20 20) translate(40 18) matrix(1 0 0 -1 0 29) matrix(1 0 0 -1 0 29)"/>
                    </g>
                </g>
            </g>
        </g>
    </g>
</svg>
