<?xml version="1.0" encoding="UTF-8"?>
<svg width="1200px" height="627px" viewBox="0 0 1200 627" version="1.1" xmlns="http://www.w3.org/2000/svg" xmlns:xlink="http://www.w3.org/1999/xlink">
    <title>Group 2</title>
    <defs>
        <linearGradient x1="50%" y1="0%" x2="50%" y2="100%" id="linearGradient-1">
            <stop stop-color="#F7F7F7" offset="0%"></stop>
            <stop stop-color="#E7E7E7" offset="100%"></stop>
        </linearGradient>
        <rect id="path-2" x="0" y="0" width="1200" height="627"></rect>
    </defs>
    <g id="Page-1" stroke="none" stroke-width="1" fill="none" fill-rule="evenodd">
        <g id="Group-2">
            <g id="Rectangle">
                <use fill="#F7F7F7" xlink:href="#path-2"></use>
                <use fill="url(#linearGradient-1)" xlink:href="#path-2"></use>
            </g>
            <g id="Group" transform="translate(313.000000, 145.000000)" fill-rule="nonzero">
                <g id="title" transform="translate(0.000000, 249.000000)" fill="#000000">
                    <path d="M375.727188,0 C378.686662,0 381.413197,0.464669739 383.906792,1.39784946 C386.400388,2.33102919 388.55794,3.65591398 390.37563,5.37634409 C392.19332,7.09677419 393.610049,9.1858679 394.625816,11.6397849 C395.641584,14.0975422 396.149468,16.8471582 396.149468,19.8924731 C396.149468,22.8686636 395.641584,25.5837174 394.625816,28.0376344 C393.610049,30.4953917 392.19332,32.6075269 390.37563,34.3817204 C388.55794,36.155914 386.404207,37.5345622 383.906792,38.5215054 C381.413197,39.5084485 378.686662,40 375.727188,40 C372.805901,40 370.106097,39.5084485 367.627776,38.5215054 C365.149455,37.5345622 363.010996,36.155914 361.2124,34.3817204 C359.413803,32.6075269 358.004712,30.4915515 356.988944,28.0376344 C355.973176,25.5798771 355.465292,22.8686636 355.465292,19.8924731 C355.465292,16.8471582 355.973176,14.093702 356.988944,11.6397849 C358.004712,9.18202765 359.413803,7.09677419 361.2124,5.37634409 C363.010996,3.65591398 365.149455,2.33102919 367.627776,1.39784946 C370.106097,0.464669739 372.805901,0 375.727188,0 Z M248.542359,0 C251.501833,0 254.228367,0.464669739 256.721963,1.39784946 C259.215559,2.33102919 261.373111,3.65591398 263.190801,5.37634409 C265.00849,7.09677419 266.425219,9.1858679 267.440987,11.6397849 C268.456755,14.0975422 268.964639,16.8471582 268.964639,19.8924731 C268.964639,22.8686636 268.456755,25.5837174 267.440987,28.0376344 C266.425219,30.4953917 265.00849,32.6075269 263.190801,34.3817204 C261.373111,36.155914 259.219377,37.5345622 256.721963,38.5215054 C254.228367,39.5084485 251.501833,40 248.542359,40 C245.621071,40 242.921267,39.5084485 240.442946,38.5215054 C237.964626,37.5345622 235.826167,36.155914 234.02757,34.3817204 C232.228974,32.6075269 230.819882,30.4915515 229.804115,28.0376344 C228.788347,25.5798771 228.280463,22.8686636 228.280463,19.8924731 C228.280463,16.8471582 228.788347,14.093702 229.804115,11.6397849 C230.819882,9.18202765 232.228974,7.09677419 234.02757,5.37634409 C235.826167,3.65591398 237.964626,2.33102919 240.442946,1.39784946 C242.921267,0.464669739 245.621071,0 248.542359,0 Z M561.719631,7.10542736e-15 C563.644243,7.10542736e-15 565.595587,0.341781874 567.573661,1.02150538 C569.551735,1.70122888 571.27014,2.72273425 572.732693,4.08602151 L568.348852,8.92473118 C567.63476,7.99155146 566.630448,7.21198157 565.32828,6.58602151 C564.02993,5.96006144 562.716305,5.64516129 561.398862,5.64516129 C560.616033,5.64516129 559.833204,5.74500768 559.046557,5.94086022 C558.263729,6.13671275 557.549636,6.44009217 556.908099,6.85483871 C556.266561,7.26574501 555.739584,7.80337942 555.330985,8.46774194 C554.922387,9.13210445 554.716178,9.92703533 554.716178,10.8602151 C554.716178,11.7204301 554.895656,12.4539171 555.250793,13.0645161 C555.60593,13.6751152 556.098539,14.1935484 556.720983,14.6236559 C557.343428,15.0537634 558.103344,15.4301075 558.993096,15.7526882 C559.882847,16.0752688 560.864247,16.3978495 561.933476,16.7204301 C563.143997,17.1159754 564.400341,17.5652842 565.70251,18.0645161 C567.00086,18.5637481 568.196105,19.2281106 569.284428,20.0537634 C570.372751,20.8794163 571.262502,21.9162826 571.957501,23.172043 C572.6525,24.4278034 573,25.9869432 573,27.8494624 C573,29.8924731 572.62577,31.6743472 571.877309,33.1989247 C571.128849,34.7235023 570.132174,35.9869432 568.883467,36.9892473 C567.63476,37.9915515 566.172207,38.7442396 564.499627,39.2473118 C562.823228,39.7465438 561.062818,40 559.206942,40 C556.747714,40 554.341948,39.5430108 551.989644,38.6290323 C549.637339,37.7150538 547.712726,36.3632873 546.215805,34.5698925 L551.027337,30.0537634 C551.955276,31.344086 553.192527,32.3655914 554.742909,33.1182796 C556.293292,33.8709677 557.816943,34.2473118 559.313865,34.2473118 C560.096693,34.2473118 560.898615,34.1474654 561.719631,33.9516129 C562.540646,33.7557604 563.27765,33.421659 563.938281,32.9569892 C564.598912,32.4923195 565.133527,31.9086022 565.542125,31.2096774 C565.950724,30.5107527 566.156932,29.6428571 566.156932,28.6021505 C566.156932,27.5998464 565.927812,26.7665131 565.461933,26.1021505 C564.999873,25.437788 564.37361,24.8655914 563.590782,24.3817204 C562.807953,23.8978495 561.880015,23.4754224 560.810786,23.1182796 L559.722463,22.7534562 L557.442713,21.9892473 C556.300929,21.6321045 555.162964,21.2019969 554.021179,20.6989247 C552.879395,20.1996928 551.85599,19.5353303 550.947145,18.7096774 C550.0383,17.8840246 549.297477,16.8740399 548.728494,15.672043 C548.155693,14.4700461 547.873111,12.9761905 547.873111,11.1827957 C547.873111,9.24731183 548.274072,7.58064516 549.075994,6.1827957 C549.877916,4.78494624 550.928052,3.62903226 552.23022,2.71505376 C553.52857,1.80107527 555.010216,1.12135177 556.667522,0.672043011 C558.324827,0.222734255 560.008864,7.10542736e-15 561.719631,7.10542736e-15 L561.719631,7.10542736e-15 Z M211.600485,0 C212.811006,0 214.078806,0.115207373 215.396249,0.349462366 C216.713693,0.579877112 217.981493,0.940860215 219.192013,1.42473118 C220.402534,1.90860215 221.544318,2.50768049 222.613547,3.22580645 C223.682777,3.94393241 224.591622,4.80030722 225.340082,5.80645161 L220.207781,9.89247312 C219.211107,8.52918587 217.908938,7.53456221 216.305094,6.90860215 C214.70125,6.28264209 213.135593,5.96774194 211.600485,5.96774194 C209.641504,5.96774194 207.858182,6.32488479 206.254338,7.04301075 C204.650494,7.76113671 203.268134,8.74423963 202.111075,10 C200.954016,11.2557604 200.060446,12.7265745 199.438001,14.4086022 C198.815557,16.09447 198.502426,17.922427 198.502426,19.8924731 C198.502426,21.9700461 198.80792,23.8709677 199.411271,25.5913978 C200.01844,27.311828 200.881461,28.7903226 202.004152,30.0268817 C203.126843,31.2634409 204.471017,32.2235023 206.040493,32.9032258 C207.60615,33.5829493 209.374197,33.9247312 211.333178,33.9247312 C213.364714,33.9247312 215.16331,33.5215054 216.732786,32.7150538 C218.298443,31.9086022 219.566244,30.8410138 220.52855,29.516129 L225.928158,33.3333333 C224.251759,35.4454685 222.204949,37.0890937 219.78009,38.2526882 C217.35523,39.4162826 214.521772,40 211.279716,40 C208.320242,40 205.605164,39.5084485 203.126843,38.5215054 C200.648522,37.5345622 198.521519,36.155914 196.738197,34.3817204 C194.954876,32.6075269 193.568696,30.4915515 192.568203,28.0376344 C191.571529,25.5798771 191.071282,22.8686636 191.071282,19.8924731 C191.071282,16.8471582 191.598259,14.093702 192.648395,11.6397849 C193.698531,9.18202765 195.141991,7.09677419 196.978774,5.37634409 C198.811739,3.65591398 200.980747,2.33102919 203.474342,1.39784946 C205.967938,0.464669739 208.679198,0 211.600485,0 L211.600485,0 Z M159.475555,0.967741935 L175.781302,39.0322581 L168.082851,39.0322581 L164.932443,31.2634409 L164.962993,31.2634409 L161.923327,23.5829493 L161.846953,23.5829493 L156.37479,9.03225806 L150.795704,23.5829493 L150.719331,23.5829493 L147.748401,31.2634409 L147.767494,31.2634409 L144.72019,39.0322581 L137.182124,39.0322581 L153.648255,0.967741935 L159.475555,0.967741935 L159.475555,0.967741935 Z M544.665423,0.967741935 L544.665423,6.88172043 L533.064284,6.88172043 L533.064284,39.0322581 L526.32814,39.0322581 L526.32814,6.88172043 L514.727001,6.88172043 L514.727001,0.967741935 L544.665423,0.967741935 L544.665423,0.967741935 Z M286.018847,0.967741935 L295.855757,28.0107527 L296.016141,28.0107527 L305.746128,0.967741935 L316.331498,0.967741935 L316.331498,39.0322581 L309.648815,39.0322581 L309.648815,8.44086022 L309.541892,8.44086022 L298.047677,39.0322581 L293.343068,39.0322581 L282.009237,8.44086022 L281.902314,8.44086022 L281.902314,39.0322581 L275.486938,39.0322581 L275.486938,0.967741935 L286.018847,0.967741935 L286.018847,0.967741935 Z M22.2934316,0.967741935 L38.599179,39.0322581 L30.9007277,39.0322581 L27.3722709,30.3225806 L27.3417215,30.3225806 L24.7106536,23.671275 L24.6953789,23.6674347 L19.1926665,9.03225806 L13.5792125,23.6674347 L13.5104764,23.671275 L10.5357276,31.3517665 L10.554821,31.3479263 L7.5380668,39.0322581 L0,39.0322581 L16.4661317,0.967741935 L22.2934316,0.967741935 L22.2934316,0.967741935 Z M49.0776264,0.967741935 L49.0776264,33.0107527 L65.1695279,33.0107527 L65.1695279,39.0322581 L42.3414816,39.0322581 L42.3414816,0.967741935 L49.0776264,0.967741935 Z M82.0098899,0.967741935 C84.1865353,0.967741935 86.1455162,1.16359447 87.8906512,1.55913978 C89.6357863,1.9546851 91.136526,2.59600614 92.3814144,3.49462366 C93.6301216,4.38940092 94.592428,5.53763441 95.2683336,6.93548387 C95.9442393,8.33333333 96.2841015,10.0192012 96.2841015,11.9892473 C96.2841015,14.1013825 95.8907779,15.8794163 95.1079492,17.311828 C94.3251206,18.7442396 93.2635286,19.9001536 91.926992,20.7795699 C90.5904553,21.6589862 89.0324354,22.2926267 87.2491136,22.688172 C85.8247474,23.0030722 84.3278264,23.1912442 82.7659878,23.2565284 L81.8685989,23.2718894 L81.8685989,17.5576037 L82.1893677,17.5537634 C82.8996415,17.515361 83.5908218,17.4462366 84.2552715,17.3387097 C85.251946,17.1774194 86.1455162,16.8894009 86.9283448,16.4784946 C87.7111735,16.0675883 88.3374364,15.5030722 88.7994962,14.7849462 C89.261556,14.0668203 89.4944952,13.1336406 89.4944952,11.9892473 C89.4944952,10.875576 89.2653747,9.97311828 88.7994962,9.27419355 C88.3374364,8.57526882 87.7226295,8.02995392 86.9550756,7.6344086 C86.1913403,7.23886329 85.3130448,6.98156682 84.3354637,6.85483871 C83.3540639,6.7281106 82.3497521,6.66666667 81.3148908,6.66666667 L76.3964359,6.66666667 L76.3964359,17.5806452 L76.4078919,17.5768049 L76.4078919,23.2795699 L76.3964359,23.2795699 L76.3964359,39.0322581 L69.6602911,39.0322581 L69.6602911,0.967741935 L82.0098899,0.967741935 L82.0098899,0.967741935 Z M133.439821,0.967741935 L133.439821,39.0322581 L126.703676,39.0322581 L126.703676,24.4969278 L126.711313,24.4969278 L126.711313,12.9761905 L126.703676,12.9761905 L126.703676,0.967741935 L133.439821,0.967741935 Z M109.007931,0.967741935 L109.007931,16.344086 L121.246788,16.344086 L121.246788,22.1505376 L109.007931,22.1505376 L109.007931,39.0322581 L102.271786,39.0322581 L102.271786,0.967741935 L109.007931,0.967741935 Z M337.021086,0.967741935 C339.197731,0.967741935 341.156712,1.16359447 342.901847,1.55913978 C344.646982,1.9546851 346.147722,2.59600614 347.392611,3.49462366 C348.641318,4.38940092 349.603624,5.53763441 350.27953,6.93548387 C350.955435,8.33333333 351.295298,10.0192012 351.295298,11.9892473 C351.295298,14.1013825 350.901974,15.8794163 350.119145,17.311828 C349.336317,18.7442396 348.274725,19.9001536 346.938188,20.7795699 C345.601651,21.6589862 344.043632,22.2926267 342.26031,22.688172 C340.835944,23.0030722 339.339022,23.1912442 337.777184,23.2565284 L336.868339,23.2718894 L336.868339,17.5576037 L337.200564,17.5537634 C337.910838,17.515361 338.602018,17.4462366 339.266468,17.3387097 C340.263142,17.1774194 341.156712,16.8894009 341.939541,16.4784946 C342.72237,16.0675883 343.348632,15.5030722 343.810692,14.7849462 C344.272752,14.0668203 344.505691,13.1336406 344.505691,11.9892473 C344.505691,10.875576 344.276571,9.97311828 343.810692,9.27419355 C343.348632,8.57526882 342.733826,8.02995392 341.966272,7.6344086 C341.202536,7.23886329 340.324241,6.98156682 339.34666,6.85483871 C338.36526,6.7281106 337.360948,6.66666667 336.326087,6.66666667 L331.407632,6.66666667 L331.407632,39.0322581 L324.671487,39.0322581 L324.671487,0.967741935 L337.021086,0.967741935 L337.021086,0.967741935 Z M411.599832,0.967741935 L429.188655,29.4623656 L429.295578,29.4623656 L429.295578,0.967741935 L436.031722,0.967741935 L436.031722,39.0322581 L427.477888,39.0322581 L409.514835,9.62365591 L409.407912,9.62365591 L409.407912,39.0322581 L402.671767,39.0322581 L402.671767,0.967741935 L411.599832,0.967741935 L411.599832,0.967741935 Z M469.445139,0.967741935 L469.445139,6.88172043 L451.107856,6.88172043 L451.107856,14.0284178 L451.092581,14.0284178 L451.092581,25.5491551 L451.107856,25.5491551 L451.107856,33.0107527 L470.407445,33.0107527 L470.407445,39.0322581 L444.371711,39.0322581 L444.371711,0.967741935 L469.445139,0.967741935 L469.445139,0.967741935 Z M485.911271,0.967741935 L503.500093,29.4623656 L503.607016,29.4623656 L503.607016,0.967741935 L510.343161,0.967741935 L510.343161,39.0322581 L501.789326,39.0322581 L483.826274,9.62365591 L483.719351,9.62365591 L483.719351,39.0322581 L476.983206,39.0322581 L476.983206,0.967741935 L485.911271,0.967741935 L485.911271,0.967741935 Z M248.59582,5.96774194 C246.636839,5.96774194 244.861155,6.32488479 243.276404,7.04301075 C241.691654,7.76113671 240.328386,8.74423963 239.186602,10 C238.044818,11.2557604 237.162704,12.7265745 236.540259,14.4086022 C235.917815,16.09447 235.604684,17.922427 235.604684,19.8924731 C235.604684,21.9354839 235.917815,23.8095238 236.540259,25.5107527 C237.162704,27.2119816 238.056274,28.6904762 239.213333,29.9462366 C240.370392,31.2019969 241.745115,32.1774194 243.329866,32.8763441 C244.914616,33.5752688 246.671207,33.9247312 248.59582,33.9247312 C250.520433,33.9247312 252.284661,33.5752688 253.888505,32.8763441 C255.492349,32.1774194 256.87471,31.2019969 258.031769,29.9462366 C259.188828,28.6904762 260.082398,27.2119816 260.704842,25.5107527 C261.327287,23.8095238 261.640418,21.9354839 261.640418,19.8924731 C261.640418,17.922427 261.327287,16.0906298 260.704842,14.4086022 C260.082398,12.7227343 259.200284,11.2557604 258.0585,10 C256.916716,8.74423963 255.545811,7.76113671 253.941967,7.04301075 C252.338123,6.32488479 250.554801,5.96774194 248.59582,5.96774194 Z M375.780649,5.96774194 C373.821668,5.96774194 372.045984,6.32488479 370.461233,7.04301075 C368.876483,7.76113671 367.513215,8.74423963 366.371431,10 C365.229647,11.2557604 364.347533,12.7265745 363.725089,14.4086022 C363.102644,16.09447 362.789513,17.922427 362.789513,19.8924731 C362.789513,21.9354839 363.102644,23.8095238 363.725089,25.5107527 C364.347533,27.2119816 365.241103,28.6904762 366.398162,29.9462366 C367.555221,31.2019969 368.929944,32.1774194 370.514695,32.8763441 C372.099446,33.5752688 373.856037,33.9247312 375.780649,33.9247312 C377.705262,33.9247312 379.469491,33.5752688 381.073335,32.8763441 C382.677179,32.1774194 384.059539,31.2019969 385.216598,29.9462366 C386.373657,28.6904762 387.267227,27.2119816 387.889672,25.5107527 C388.512116,23.8095238 388.825247,21.9354839 388.825247,19.8924731 C388.825247,17.922427 388.512116,16.0906298 387.889672,14.4086022 C387.267227,12.7227343 386.385113,11.2557604 385.243329,10 C384.101545,8.74423963 382.73064,7.76113671 381.126796,7.04301075 C379.522952,6.32488479 377.73963,5.96774194 375.780649,5.96774194 L375.780649,5.96774194 Z M468.482833,16.5591398 L468.482833,22.2580645 L456.553288,22.2580645 L456.553288,16.5591398 L468.482833,16.5591398 L468.482833,16.5591398 Z" id="Shape"></path>
                </g>
                <g id="logo-150" transform="translate(186.000000, 0.000000)" fill="#7B00FF">
                    <path d="M87.0957769,47.404138 L125.907377,116.522828 L114.184134,115.782138 L86.9968465,67.3718967 L28.6897916,168.858724 L178.779447,168.753793 L184.529772,179 L178.779447,178.821001 L11.5253818,178.938277 L87.0957769,47.404138 Z M113.553453,2.70968966 L116.274037,7.91303449 L200,156.77931 L51.431398,155.254725 L90.2368144,86.1422071 L95.473938,96.9501036 L68.2928337,145.360345 L182.928337,146.539277 L107.803129,12.9435517 L113.553453,2.69734483 L113.553453,2.70968966 Z M86.5578433,0 L159.556051,133.052552 L81.9390341,133.052552 L88.4313361,122.985345 L142.793545,122.985345 L86.4650961,20.3195863 L11.5068324,154.01407 L0,154.01407 L3.02355779,148.983553 L86.5578433,0 Z" id="Shape"></path>
                </g>
            </g>
        </g>
    </g>
</svg>