<svg xmlns="http://www.w3.org/2000/svg" width="151" height="11" viewBox="0 0 151 11">
    <g fill="none" fill-rule="evenodd">
        <g fill="#FFF" fill-rule="nonzero">
            <g>
                <g>
                    <g>
                        <path d="M1.974 10.164l.896-2.268h4.298l.924 2.268h2.016L5.838.252H4.312L0 10.164h1.974zm4.578-3.78h-3.08l1.554-4.032 1.526 4.032zm10.514 3.78V8.596h-4.214V.252h-1.764v9.912h5.978zm2.94 0V6.062h1.358c.523 0 1.017-.051 1.484-.154.467-.103.875-.268 1.225-.497.35-.229.628-.53.833-.903.205-.373.308-.835.308-1.386 0-.513-.089-.952-.266-1.316-.177-.364-.43-.663-.756-.896-.327-.233-.719-.401-1.176-.504-.457-.103-.97-.154-1.54-.154h-3.234v9.912h1.764zm0-5.586V1.736h1.288c.27 0 .534.016.791.049s.485.1.686.203c.2.103.362.245.483.427s.182.418.182.707c0 .299-.06.541-.182.728-.121.187-.285.334-.49.441-.205.107-.439.182-.7.224-.261.042-.537.063-.826.063h-1.232zm8.54 5.586V5.768h4.634v4.396h1.764V.252H33.18v4.004h-4.634V.252h-1.764v9.912h1.764zm9.352 0l.896-2.268h4.298l.924 2.268h2.016L41.762.252h-1.526l-4.312 9.912h1.974zm4.578-3.78h-3.08l1.554-4.032 1.526 4.032zm12.852 4.032c.85 0 1.591-.152 2.226-.455.635-.303 1.171-.73 1.61-1.281l-1.414-.994c-.252.345-.583.623-.994.833-.41.21-.882.315-1.414.315-.513 0-.975-.089-1.386-.266-.41-.177-.763-.427-1.057-.749-.294-.322-.52-.707-.679-1.155-.159-.448-.238-.943-.238-1.484 0-.513.082-.99.245-1.428.163-.439.397-.821.7-1.148.303-.327.665-.583 1.085-.77.42-.187.887-.28 1.4-.28.401 0 .812.082 1.232.245.42.163.76.422 1.022.777l1.344-1.064c-.196-.261-.434-.485-.714-.672-.28-.187-.579-.343-.896-.469-.317-.126-.649-.22-.994-.28-.345-.06-.677-.091-.994-.091-.765 0-1.475.121-2.128.364s-1.22.588-1.701 1.036c-.48.448-.859.992-1.134 1.631-.275.64-.413 1.356-.413 2.149 0 .775.13 1.482.392 2.121.261.64.625 1.19 1.092 1.652.467.462 1.024.821 1.673 1.078.649.257 1.36.385 2.135.385zm9.758 0c.775 0 1.489-.128 2.142-.385.653-.257 1.218-.616 1.694-1.078.476-.462.847-1.013 1.113-1.652.266-.64.399-1.346.399-2.121 0-.793-.133-1.51-.399-2.149-.266-.64-.637-1.183-1.113-1.631-.476-.448-1.04-.793-1.694-1.036C66.575.121 65.861 0 65.086 0c-.765 0-1.472.121-2.121.364s-1.209.588-1.68 1.036c-.471.448-.84.992-1.106 1.631-.266.64-.399 1.356-.399 2.149 0 .775.133 1.482.399 2.121.266.64.635 1.19 1.106 1.652.471.462 1.031.821 1.68 1.078.649.257 1.356.385 2.121.385zm.014-1.582c-.504 0-.964-.091-1.379-.273-.415-.182-.775-.436-1.078-.763-.303-.327-.537-.712-.7-1.155-.163-.443-.245-.931-.245-1.463 0-.513.082-.99.245-1.428.163-.439.394-.821.693-1.148.299-.327.656-.583 1.071-.77.415-.187.88-.28 1.393-.28s.98.093 1.4.28c.42.187.78.443 1.078.77.299.327.53.71.693 1.148.163.439.245.915.245 1.428 0 .532-.082 1.02-.245 1.463-.163.443-.397.828-.7 1.155-.303.327-.665.581-1.085.763-.42.182-.882.273-1.386.273zm8.722 1.33V2.198h.028l2.968 7.966h1.232l3.01-7.966h.028v7.966h1.75V.252h-2.772l-2.548 7.042h-.042L74.9.252h-2.758v9.912h1.68zm12.964 0V6.062h1.358c.523 0 1.017-.051 1.484-.154.467-.103.875-.268 1.225-.497.35-.229.628-.53.833-.903.205-.373.308-.835.308-1.386 0-.513-.089-.952-.266-1.316-.177-.364-.43-.663-.756-.896-.327-.233-.719-.401-1.176-.504-.457-.103-.97-.154-1.54-.154h-3.234v9.912h1.764zm0-5.586V1.736h1.288c.27 0 .534.016.791.049s.485.1.686.203c.2.103.362.245.483.427s.182.418.182.707c0 .299-.06.541-.182.728-.121.187-.285.334-.49.441-.205.107-.439.182-.7.224-.261.042-.537.063-.826.063h-1.232zm11.606 5.838c.775 0 1.489-.128 2.142-.385.653-.257 1.218-.616 1.694-1.078.476-.462.847-1.013 1.113-1.652.266-.64.399-1.346.399-2.121 0-.793-.133-1.51-.399-2.149-.266-.64-.637-1.183-1.113-1.631-.476-.448-1.04-.793-1.694-1.036C99.881.121 99.167 0 98.392 0c-.765 0-1.472.121-2.121.364s-1.209.588-1.68 1.036c-.471.448-.84.992-1.106 1.631-.266.64-.399 1.356-.399 2.149 0 .775.133 1.482.399 2.121.266.64.635 1.19 1.106 1.652.471.462 1.031.821 1.68 1.078.649.257 1.356.385 2.121.385zm.014-1.582c-.504 0-.964-.091-1.379-.273-.415-.182-.775-.436-1.078-.763-.303-.327-.537-.712-.7-1.155-.163-.443-.245-.931-.245-1.463 0-.513.082-.99.245-1.428.163-.439.394-.821.693-1.148.299-.327.656-.583 1.071-.77.415-.187.88-.28 1.393-.28s.98.093 1.4.28c.42.187.78.443 1.078.77.299.327.53.71.693 1.148.163.439.245.915.245 1.428 0 .532-.082 1.02-.245 1.463-.163.443-.397.828-.7 1.155-.303.327-.665.581-1.085.763-.42.182-.882.273-1.386.273zm8.806 1.33V2.506h.028l4.704 7.658h2.24V.252h-1.764v7.42h-.028l-4.606-7.42h-2.338v9.912h1.764zm15.974 0V8.596h-5.054v-2.8h4.55V4.312h-4.55v-2.52h4.802V.252h-6.566v9.912h6.818zm3.486 0V2.506h.028l4.704 7.658h2.24V.252h-1.764v7.42h-.028l-4.606-7.42h-2.338v9.912h1.764zm12.922 0V1.792h3.038V.252h-7.84v1.54h3.038v8.372h1.764zm6.846.252c.485 0 .947-.065 1.386-.196.439-.13.821-.327 1.148-.588.327-.261.588-.59.784-.987.196-.397.294-.861.294-1.393 0-.485-.091-.891-.273-1.218-.182-.327-.415-.597-.7-.812-.285-.215-.597-.387-.938-.518-.34-.13-.67-.247-.987-.35-.28-.084-.537-.168-.77-.252-.233-.084-.432-.182-.595-.294-.163-.112-.292-.247-.385-.406-.093-.159-.14-.35-.14-.574 0-.243.054-.45.161-.623.107-.173.245-.313.413-.42.168-.107.355-.187.56-.238.205-.051.41-.077.616-.077.345 0 .688.082 1.029.245.34.163.604.366.791.609l1.148-1.26c-.383-.355-.833-.62-1.351-.798-.518-.177-1.029-.266-1.533-.266-.448 0-.889.058-1.323.175-.434.117-.821.294-1.162.532-.34.238-.616.539-.826.903-.21.364-.315.798-.315 1.302 0 .467.075.856.224 1.169.15.313.343.576.581.791.238.215.506.387.805.518.299.13.597.243.896.336l.597.2.285.094c.28.093.523.203.728.329.205.126.369.275.49.448s.182.39.182.651c0 .27-.054.497-.161.679-.107.182-.247.334-.42.455s-.366.208-.581.259c-.215.051-.425.077-.63.077-.392 0-.791-.098-1.197-.294-.406-.196-.73-.462-.973-.798l-1.26 1.176c.392.467.896.819 1.512 1.057s1.246.357 1.89.357z" transform="translate(-113 -49) translate(20 20) translate(40 18) translate(53 11)"/>
                    </g>
                </g>
            </g>
        </g>
    </g>
</svg>
