<svg xmlns="http://www.w3.org/2000/svg" width="151" height="11" viewBox="0 0 151 11">
    <g fill="none" fill-rule="evenodd">
        <g fill="#000" fill-rule="nonzero">
            <g>
                <g>
                    <path d="M151.392 11c.775 0 1.489.121 2.142.364.653.243 1.218.588 1.694 1.036.476.448.847.992 1.113 1.631.266.64.399 1.356.399 2.149 0 .775-.133 1.482-.399 2.121-.266.64-.637 1.19-1.113 1.652-.476.462-1.04.821-1.694 1.078-.653.257-1.367.385-2.142.385-.765 0-1.472-.128-2.121-.385s-1.209-.616-1.68-1.078c-.471-.462-.84-1.013-1.106-1.652-.266-.64-.399-1.346-.399-2.121 0-.793.133-1.51.399-2.149.266-.64.635-1.183 1.106-1.631.471-.448 1.031-.793 1.68-1.036s1.356-.364 2.121-.364zm-33.306 0c.775 0 1.489.121 2.142.364.653.243 1.218.588 1.694 1.036.476.448.847.992 1.113 1.631.266.64.399 1.356.399 2.149 0 .775-.133 1.482-.399 2.121-.266.64-.637 1.19-1.113 1.652-.476.462-1.04.821-1.694 1.078-.653.257-1.367.385-2.142.385-.765 0-1.472-.128-2.121-.385s-1.209-.616-1.68-1.078c-.471-.462-.84-1.013-1.106-1.652-.266-.64-.399-1.346-.399-2.121 0-.793.133-1.51.399-2.149.266-.64.635-1.183 1.106-1.631.471-.448 1.031-.793 1.68-1.036s1.356-.364 2.121-.364zm82.012 0c.504 0 1.015.089 1.533.266.518.177.968.443 1.351.798l-1.148 1.26c-.187-.243-.45-.446-.791-.609-.34-.163-.684-.245-1.029-.245-.205 0-.41.026-.616.077-.205.051-.392.13-.56.238-.168.107-.306.247-.413.42-.107.173-.161.38-.161.623 0 .224.047.415.14.574.093.159.222.294.385.406.163.112.362.21.595.294.233.084.49.168.77.252.317.103.646.22.987.35.34.13.653.303.938.518.285.215.518.485.7.812.182.327.273.733.273 1.218 0 .532-.098.996-.294 1.393-.196.397-.457.726-.784.987s-.71.457-1.148.588c-.439.13-.9.196-1.386.196-.644 0-1.274-.119-1.89-.357-.616-.238-1.12-.59-1.512-1.057l1.26-1.176c.243.336.567.602.973.798.406.196.805.294 1.197.294.205 0 .415-.026.63-.077.215-.051.408-.138.581-.259s.313-.273.42-.455c.107-.182.161-.408.161-.679 0-.261-.06-.478-.182-.651-.121-.173-.285-.322-.49-.448-.205-.126-.448-.236-.728-.329l-.285-.095-.597-.199c-.299-.093-.597-.205-.896-.336-.299-.13-.567-.303-.805-.518-.238-.215-.432-.478-.581-.791-.15-.313-.224-.702-.224-1.169 0-.504.105-.938.315-1.302.21-.364.485-.665.826-.903.34-.238.728-.415 1.162-.532.434-.117.875-.175 1.323-.175zm-91.686 0c.317 0 .649.03.994.091.345.06.677.154.994.28.317.126.616.282.896.469s.518.41.714.672l-1.344 1.064c-.261-.355-.602-.614-1.022-.777-.42-.163-.83-.245-1.232-.245-.513 0-.98.093-1.4.28-.42.187-.782.443-1.085.77-.303.327-.537.71-.7 1.148-.163.439-.245.915-.245 1.428 0 .541.08 1.036.238 1.484.159.448.385.833.679 1.155.294.322.646.572 1.057.749.41.177.873.266 1.386.266.532 0 1.003-.105 1.414-.315.41-.21.742-.488.994-.833l1.414.994c-.439.55-.975.978-1.61 1.281-.635.303-1.377.455-2.226.455-.775 0-1.486-.128-2.135-.385-.649-.257-1.206-.616-1.673-1.078-.467-.462-.83-1.013-1.092-1.652-.261-.64-.392-1.346-.392-2.121 0-.793.138-1.51.413-2.149.275-.64.653-1.183 1.134-1.631.48-.448 1.048-.793 1.701-1.036s1.363-.364 2.128-.364zm-13.65.252l4.27 9.912h-2.016l-.825-2.023h.008l-.796-2h-.02l-1.433-3.789-1.461 3.789h-.02l-.778 2h.005l-.798 2.023h-1.974l4.312-9.912h1.526zm100.87 0v1.54h-3.038v8.372h-1.764v-8.372h-3.038v-1.54h7.84zm-67.732 0l2.576 7.042h.042l2.548-7.042h2.772v9.912h-1.75v-7.966h-.028l-3.01 7.966h-1.232l-2.968-7.966h-.028v7.966h-1.68v-9.912h2.758zm-69.062 0l4.27 9.912h-2.016l-.924-2.268h-.008l-.689-1.732-.004-.001-1.441-3.811-1.47 3.811-.018.001-.779 2 .005-.001-.79 2.001H53l4.312-9.912h1.526zm7.014 0v8.344h4.214v1.568h-5.978v-9.912h1.764zm8.624 0c.57 0 1.083.051 1.54.154.457.103.85.27 1.176.504.327.233.579.532.756.896.177.364.266.803.266 1.316 0 .55-.103 1.013-.308 1.386-.205.373-.483.674-.833.903-.35.229-.758.394-1.225.497-.373.082-.765.131-1.174.148l-.235.004v-1.488l.084-.001c.186-.01.367-.028.541-.056.261-.042.495-.117.7-.224.205-.107.369-.254.49-.441s.182-.43.182-.728c0-.29-.06-.525-.182-.707-.121-.182-.282-.324-.483-.427-.2-.103-.43-.17-.686-.203-.257-.033-.52-.049-.791-.049h-1.288v2.842l.003-.001v1.485h-.003v4.102h-1.764v-9.912h3.234zm13.468 0v9.912H86.18v-3.785h.002v-3h-.002v-3.127h1.764zm-6.398 0v4.004h3.205v1.512h-3.205v4.396h-1.764v-9.912h1.764zm59.71 0c.57 0 1.083.051 1.54.154.457.103.85.27 1.176.504.327.233.579.532.756.896.177.364.266.803.266 1.316 0 .55-.103 1.013-.308 1.386-.205.373-.483.674-.833.903-.35.229-.758.394-1.225.497-.373.082-.765.131-1.174.148l-.238.004v-1.488l.087-.001c.186-.01.367-.028.541-.056.261-.042.495-.117.7-.224.205-.107.369-.254.49-.441s.182-.43.182-.728c0-.29-.06-.525-.182-.707-.121-.182-.282-.324-.483-.427-.2-.103-.43-.17-.686-.203-.257-.033-.52-.049-.791-.049h-1.288v8.428h-1.764v-9.912h3.234zm19.53 0l4.606 7.42h.028v-7.42h1.764v9.912h-2.24l-4.704-7.658h-.028v7.658h-1.764v-9.912h2.338zm15.148 0v1.54h-4.802v1.861h-.004v3h.004v1.943h5.054v1.568h-6.818v-9.912h6.566zm4.312 0l4.606 7.42h.028v-7.42h1.764v9.912h-2.24l-4.704-7.658h-.028v7.658h-1.764v-9.912h2.338zM118.1 12.554c-.513 0-.978.093-1.393.28-.415.187-.772.443-1.071.77-.299.327-.53.71-.693 1.148-.163.439-.245.915-.245 1.428 0 .532.082 1.02.245 1.463.163.443.397.828.7 1.155.303.327.663.581 1.078.763.415.182.875.273 1.379.273s.966-.091 1.386-.273c.42-.182.782-.436 1.085-.763.303-.327.537-.712.7-1.155.163-.443.245-.931.245-1.463 0-.513-.082-.99-.245-1.428-.163-.439-.394-.821-.693-1.148-.299-.327-.658-.583-1.078-.77-.42-.187-.887-.28-1.4-.28zm33.306 0c-.513 0-.978.093-1.393.28-.415.187-.772.443-1.071.77-.299.327-.53.71-.693 1.148-.163.439-.245.915-.245 1.428 0 .532.082 1.02.245 1.463.163.443.397.828.7 1.155.303.327.663.581 1.078.763.415.182.875.273 1.379.273s.966-.091 1.386-.273c.42-.182.782-.436 1.085-.763.303-.327.537-.712.7-1.155.163-.443.245-.931.245-1.463 0-.513-.082-.99-.245-1.428-.163-.439-.394-.821-.693-1.148-.299-.327-.658-.583-1.078-.77-.42-.187-.887-.28-1.4-.28zm24.276 2.758v1.484h-3.124v-1.484h3.124z" transform="translate(-113 -51) translate(20 20) translate(40 20)"/>
                </g>
            </g>
        </g>
    </g>
</svg>
