<?xml version="1.0" encoding="UTF-8"?>
<svg width="150px" height="135px" viewBox="0 0 150 135" version="1.1" xmlns="http://www.w3.org/2000/svg" xmlns:xlink="http://www.w3.org/1999/xlink">
    <title>Shape</title>
    <g id="Page-1" stroke="none" stroke-width="1" fill="none" fill-rule="evenodd">
        <g id="logo-white" fill="#7B00FF" fill-rule="nonzero">
            <path d="M65.3218327,35.6149137 L94.4305324,87.5440549 L85.6381005,86.9875719 L65.2476349,50.6167687 L21.5173437,126.864218 L134.084585,126.785383 L138.397329,134.483398 L134.084585,134.348915 L8.64403636,134.437025 L65.3218327,35.6149137 Z M85.16509,2.03580041 L87.2055277,5.94509367 L150,117.788907 L38.5735485,116.64348 L67.6776108,64.7189761 L71.6054535,72.8389909 L51.2196253,109.209794 L137.196253,110.09553 L80.8523465,9.7245409 L85.16509,2.02652569 L85.16509,2.03580041 Z M64.9183825,0 L119.667038,99.9629011 L61.4542756,99.9629011 L66.3235021,92.3993693 L107.095159,92.3993693 L64.8488221,15.2661844 L8.63012428,115.711371 L0,115.711371 L2.26766834,111.931924 L64.9183825,0 Z" id="Shape"></path>
        </g>
    </g>
</svg>